<?xml version="1.0" encoding="UTF-8"?>
<svg version="1.1" xmlns="http://www.w3.org/2000/svg" width="86" height="97">
<path d="M0 0 C2 1.875 2 1.875 3 4 C3 4.66 3 5.32 3 6 C0.69 6.33 -1.62 6.66 -4 7 C-5.35148541 11.30785975 -6 14.41957592 -6 19 C-2.37 16.36 1.26 13.72 5 11 C5.99 11.66 6.98 12.32 8 13 C7.60196439 15.88575819 7.20990931 16.82189513 4.9375 18.75 C4.298125 19.1625 3.65875 19.575 3 20 C3.62648438 20.17015625 4.25296875 20.3403125 4.8984375 20.515625 C5.71570313 20.75796875 6.53296875 21.0003125 7.375 21.25 C8.18710937 21.48203125 8.99921875 21.7140625 9.8359375 21.953125 C12.45785454 23.2214892 12.99382318 24.32423308 14 27 C14.66 27 15.32 27 16 27 C16.2475 26.4225 16.495 25.845 16.75 25.25 C18 23 18 23 20 21.125 C22.38990085 18.58573035 23.09157735 16.33088304 24 13 C24.58007812 13.20496094 25.16015625 13.40992188 25.7578125 13.62109375 C30.1621984 15.14009813 34.35677777 16.4047151 39 17 C38.69201674 15.51988629 38.378482 14.04092675 38.0625 12.5625 C37.88847656 11.73878906 37.71445312 10.91507813 37.53515625 10.06640625 C37.19247006 8.02338796 37.19247006 8.02338796 36 7 C33.67182036 6.63239269 31.3381615 6.29758419 29 6 C30.875 1.125 30.875 1.125 32 0 C35.25 -0.375 35.25 -0.375 39 0 C43.40789173 3.51651354 44.72131232 6.22426052 45.58203125 11.734375 C45.79150391 13.03117187 46.00097656 14.32796875 46.21679688 15.6640625 C46.31468506 16.33598633 46.41257324 17.00791016 46.51342773 17.70019531 C46.81012447 19.73371842 47.13558372 21.7609052 47.46679688 23.7890625 C50.3146869 42.05172234 50.3146869 42.05172234 47.84802246 45.70715332 C45.22850285 47.53972695 43.2893259 47.39483727 40.10742188 47.41992188 C38.29038757 47.44378967 38.29038757 47.44378967 36.43664551 47.46813965 C35.12723999 47.46834106 33.81783447 47.46854248 32.46875 47.46875 C31.1125863 47.47585044 29.75642561 47.48354927 28.40026855 47.49182129 C25.55891566 47.50526701 22.71784064 47.50683429 19.87646484 47.50097656 C16.23417877 47.49507516 12.59322328 47.52568658 8.95119476 47.56609344 C6.15102957 47.59193342 3.35118657 47.59485147 0.55091858 47.59120178 C-1.44501046 47.59372005 -3.44087132 47.61844323 -5.43664551 47.64343262 C-7.25367981 47.62947449 -7.25367981 47.62947449 -9.10742188 47.61523438 C-10.17536987 47.61728882 -11.24331787 47.61934326 -12.34362793 47.62145996 C-15 47 -15 47 -16.87745667 44.71107483 C-18.49976662 40.79300455 -17.80765877 37.39670174 -17.12109375 33.33984375 C-16.99315933 32.51295547 -16.86522491 31.6860672 -16.7334137 30.8341217 C-16.45881554 29.09036319 -16.17499131 27.34803577 -15.88256836 25.60717773 C-15.4390267 22.94665766 -15.03302027 20.28228669 -14.63085938 17.61523438 C-14.3590012 15.91891188 -14.08498446 14.22293363 -13.80859375 12.52734375 C-13.68858505 11.73247055 -13.56857635 10.93759735 -13.44493103 10.11863708 C-11.97647146 1.67849168 -8.49631245 -1.07889682 0 0 Z M25.64453125 21.578125 C22.18929677 25.30139858 22.18929677 25.30139858 21 30 C27.6 30 34.2 30 41 30 C40.67 27.36 40.34 24.72 40 22 C32.63430458 19.53767108 32.63430458 19.53767108 25.64453125 21.578125 Z M-9 28 C-9.22142255 29.95689659 -9.4267568 31.91561952 -9.625 33.875 C-9.74101562 34.96554688 -9.85703125 36.05609375 -9.9765625 37.1796875 C-9.98429687 38.11039063 -9.99203125 39.04109375 -10 40 C-8.16044022 42.26839977 -8.16044022 42.26839977 -5.38623047 42.22705078 C-4.30744629 42.21657715 -3.22866211 42.20610352 -2.1171875 42.1953125 C-0.95058594 42.18886719 0.21601563 42.18242188 1.41796875 42.17578125 C2.64128906 42.15902344 3.86460938 42.14226562 5.125 42.125 C6.97158203 42.11146484 6.97158203 42.11146484 8.85546875 42.09765625 C11.90383815 42.07402548 14.95182382 42.04108054 18 42 C17.22469025 40.57110149 16.44522801 39.14445566 15.6640625 37.71875 C15.2304541 36.92404297 14.7968457 36.12933594 14.35009766 35.31054688 C11.94018185 31.18623527 9.67645067 27.55881689 5 26 C2.88253801 25.80438422 2.88253801 25.80438422 0.625 25.8125 C-0.12523437 25.79832031 -0.87546875 25.78414062 -1.6484375 25.76953125 C-4.37773303 26.03702035 -6.50704369 26.88565734 -9 28 Z M20 35 C21.32 37.31 22.64 39.62 24 42 C26.62527189 42.05382106 29.24944713 42.09358313 31.875 42.125 C32.99455078 42.15013672 32.99455078 42.15013672 34.13671875 42.17578125 C36.09194461 42.1933959 38.04742021 42.10320189 40 42 C40.66 41.34 41.32 40.68 42 40 C42 38.35 42 36.7 42 35 C34.74 35 27.48 35 20 35 Z " fill="#FCBF65" transform="translate(26,41)"/>
<path d="M0 0 C4.34048798 3.02068221 7.47521474 7.11878867 8.82421875 12.26953125 C10.38444893 24.97426275 1.0658921 39.28284193 -5.7421875 49.65625 C-7.17578125 51.26953125 -7.17578125 51.26953125 -9.98828125 52.08203125 C-14.33801174 50.97327642 -15.27072874 49.06755513 -17.52734375 45.3125 C-31.37069628 19.75806488 -31.37069628 19.75806488 -28.11328125 8.64453125 C-25.27840258 3.7063555 -21.66714365 0.67491517 -16.73828125 -2.10546875 C-10.3891151 -3.65404586 -5.65135944 -3.14211144 0 0 Z M-18.17578125 9.26953125 C-20.61349851 13.23082179 -21.30331939 15.32893746 -20.67578125 19.95703125 C-18.94953129 23.76916658 -17.85130381 25.27196464 -14.17578125 27.26953125 C-9.79232923 28.13024956 -7.0280473 27.81353085 -3.23828125 25.39453125 C-0.42480864 22.4958019 -0.21356347 21.64735346 0.19921875 17.51953125 C0.1470041 14.33443762 -0.33822705 12.40489153 -2.23828125 9.83203125 C-7.51641276 5.22770377 -12.53141742 5.16453937 -18.17578125 9.26953125 Z " fill="#FBC675" transform="translate(52.17578125,9.73046875)"/>
<path d="M0 0 C2 1.375 2 1.375 4 4 C5.19064383 11.37362135 3.21602427 17.09071644 -0.125 23.5625 C-0.53661377 24.38661377 -0.94822754 25.21072754 -1.37231445 26.05981445 C-2.55320556 28.38950598 -3.7665562 30.6977827 -5 33 C-5.56847656 34.06476562 -6.13695313 35.12953125 -6.72265625 36.2265625 C-8.86769191 39.83022241 -10.01999106 41.63249665 -14 43.125 C-18.13561826 41.57414315 -19.54825622 39.09077307 -21.8984375 35.45703125 C-23.11573575 32.74185181 -23.04929701 30.93317197 -23 28 C-23.66 27.34 -24.32 26.68 -25 26 C-24.82194873 22.61702587 -24.21162756 21.23727939 -21.9375 18.6875 C-21.298125 18.130625 -20.65875 17.57375 -20 17 C-18 20 -18 20 -18 23 C-17.38125 22.319375 -17.38125 22.319375 -16.75 21.625 C-14.04842985 19.11639915 -12.11346228 17.97348899 -8.375 18.0625 C-7.199375 18.0315625 -7.199375 18.0315625 -6 18 C-3.57520264 14.36280395 -3.61337423 12.14296518 -3.375 7.8125 C-3.30023438 6.54019531 -3.22546875 5.26789062 -3.1484375 3.95703125 C-3.09945312 2.98121094 -3.05046875 2.00539063 -3 1 C-2.01 0.67 -1.02 0.34 0 0 Z " fill="#FCBE5D" transform="translate(56,19)"/>
<path d="M0 0 C-0.96486328 0.30744141 -0.96486328 0.30744141 -1.94921875 0.62109375 C-4.30253229 1.864584 -4.30253229 1.864584 -4.64453125 4.78515625 C-4.72767578 6.40744141 -4.72767578 6.40744141 -4.8125 8.0625 C-4.88082031 9.14660156 -4.94914062 10.23070313 -5.01953125 11.34765625 C-5.31085457 13.92310569 -5.31085457 13.92310569 -4 15 C-2.14630389 15.08737645 -0.28932459 15.10698153 1.56640625 15.09765625 C2.69111328 15.09443359 3.81582031 15.09121094 4.97460938 15.08789062 C6.15861328 15.07951172 7.34261719 15.07113281 8.5625 15.0625 C9.75037109 15.05798828 10.93824219 15.05347656 12.16210938 15.04882812 C15.10812226 15.03699675 18.05403681 15.02051287 21 15 C20.34 14.05125 19.68 13.1025 19 12.125 C17 9 17 9 17 7 C20.875 8.75 20.875 8.75 22 11 C22.33 10.01 22.66 9.02 23 8 C30.59 8 38.18 8 46 8 C46.66 10.31 47.32 12.62 48 15 C46.43272547 16.84170838 45.49350359 17.88776232 43.09887695 18.43237305 C42.05413208 18.47164917 42.05413208 18.47164917 40.98828125 18.51171875 C40.30548096 18.54483154 39.62268066 18.57794434 38.91918945 18.61206055 C38.05898193 18.63695557 37.19877441 18.66185059 36.3125 18.6875 C32.1978125 18.8421875 32.1978125 18.8421875 28 19 C34.93 19.33 41.86 19.66 49 20 C50.15570704 16.53287889 50.32835293 13.4585044 50.5625 9.8125 C50.68818359 7.90404297 50.68818359 7.90404297 50.81640625 5.95703125 C50.87699219 4.98121094 50.93757813 4.00539063 51 3 C51.33 3 51.66 3 52 3 C52.73088546 6.56306661 53.13138181 10.05778323 53.25 13.6875 C53.27578125 14.43386719 53.3015625 15.18023437 53.328125 15.94921875 C52.89510867 18.65557083 52.17859581 19.35162464 50 21 C47.34362793 21.39440918 47.34362793 21.39440918 44.10742188 21.41992188 C42.29038757 21.44378967 42.29038757 21.44378967 40.43664551 21.46813965 C39.12723999 21.46834106 37.81783447 21.46854248 36.46875 21.46875 C35.1125863 21.47585044 33.75642561 21.48354927 32.40026855 21.49182129 C29.55891566 21.50526701 26.71784064 21.50683429 23.87646484 21.50097656 C20.23417877 21.49507516 16.59322328 21.52568658 12.95119476 21.56609344 C10.15102957 21.59193342 7.35118657 21.59485147 4.55091858 21.59120178 C2.55498954 21.59372005 0.55912868 21.61844323 -1.43664551 21.64343262 C-2.64800171 21.6341272 -3.85935791 21.62482178 -5.10742188 21.61523438 C-6.17536987 21.61728882 -7.24331787 21.61934326 -8.34362793 21.62145996 C-11 21 -11 21 -12.87731934 18.68347168 C-14.40916408 15.02200131 -13.8758873 12.56420743 -13.1875 8.6875 C-12.97480469 7.43324219 -12.76210937 6.17898437 -12.54296875 4.88671875 C-12.36378906 3.93410156 -12.18460938 2.98148437 -12 2 C-11.67 2 -11.34 2 -11 2 C-10.875 9.625 -10.875 9.625 -12 13 C-10.68 12.34 -9.36 11.68 -8 11 C-8.0928125 9.1128125 -8.0928125 9.1128125 -8.1875 7.1875 C-8.17371263 3.29256864 -8.17371263 3.29256864 -6.8125 1 C-4.44004321 -0.30894168 -2.6664882 -0.21620175 0 0 Z M24 9 C25.32 11.31 26.64 13.62 28 16 C30.62527189 16.05382106 33.24944713 16.09358313 35.875 16.125 C36.99455078 16.15013672 36.99455078 16.15013672 38.13671875 16.17578125 C40.09194461 16.1933959 42.04742021 16.10320189 44 16 C44.66 15.34 45.32 14.68 46 14 C46 12.35 46 10.7 46 9 C38.74 9 31.48 9 24 9 Z " fill="#F7D5A1" transform="translate(22,67)"/>
<path d="M0 0 C3.75 0.375 3.75 0.375 6.37109375 2.37109375 C9.36972502 6.15754277 9.92256118 9.12097403 10.5625 13.8125 C10.74329102 14.91948242 10.74329102 14.91948242 10.92773438 16.04882812 C12.59784946 26.78528226 12.59784946 26.78528226 10.75 30.25 C7.49686316 32.07988947 4.43609891 31.55628355 0.75 31.375 C0.75 31.045 0.75 30.715 0.75 30.375 C2.4 30.375 4.05 30.375 5.75 30.375 C5.42 27.735 5.09 25.095 4.75 22.375 C3.1721875 22.4059375 3.1721875 22.4059375 1.5625 22.4375 C-1.5955115 22.38572932 -4.19432655 22.04524271 -7.25 21.375 C-7.73210938 22.0246875 -8.21421875 22.674375 -8.7109375 23.34375 C-9.34257813 24.1790625 -9.97421875 25.014375 -10.625 25.875 C-11.25148438 26.7103125 -11.87796875 27.545625 -12.5234375 28.40625 C-13.09320313 29.0559375 -13.66296875 29.705625 -14.25 30.375 C-14.91 30.375 -15.57 30.375 -16.25 30.375 C-16.58 29.715 -16.91 29.055 -17.25 28.375 C-17.91 29.035 -18.57 29.695 -19.25 30.375 C-19.25 29.715 -19.25 29.055 -19.25 28.375 C-19.91 28.045 -20.57 27.715 -21.25 27.375 C-20.59 27.375 -19.93 27.375 -19.25 27.375 C-19.0025 26.7975 -18.755 26.22 -18.5 25.625 C-17.25 23.375 -17.25 23.375 -15.25 21.5 C-12.86009915 18.96073035 -12.15842265 16.70588304 -11.25 13.375 C-10.66992188 13.57996094 -10.08984375 13.78492188 -9.4921875 13.99609375 C-5.0878016 15.51509813 -0.89322223 16.7797151 3.75 17.375 C3.44201674 15.89488629 3.128482 14.41592675 2.8125 12.9375 C2.63847656 12.11378906 2.46445312 11.29007813 2.28515625 10.44140625 C1.94247006 8.39838796 1.94247006 8.39838796 0.75 7.375 C-1.57817964 7.00739269 -3.9118385 6.67258419 -6.25 6.375 C-3.9744582 0.45859133 -3.9744582 0.45859133 0 0 Z " fill="#F9C26D" transform="translate(61.25,40.625)"/>
<path d="M0 0 C1.423125 0.2784375 1.423125 0.2784375 2.875 0.5625 C5.89868793 1.28686632 5.89868793 1.28686632 8 0 C8 0.99 8 1.98 8 3 C16.91 3 25.82 3 35 3 C35.33 2.34 35.66 1.68 36 1 C36.05397335 3.4377963 36.09365616 5.87439685 36.125 8.3125 C36.14175781 9.00279297 36.15851563 9.69308594 36.17578125 10.40429688 C36.21217794 14.17135396 36.14378864 15.78431704 34 19 C31.84521484 19.34057617 31.84521484 19.34057617 29.2109375 19.29296875 C28.26992187 19.28330078 27.32890625 19.27363281 26.359375 19.26367188 C24.88210937 19.2259668 24.88210937 19.2259668 23.375 19.1875 C21.88613281 19.16719727 21.88613281 19.16719727 20.3671875 19.14648438 C17.91091928 19.11105743 15.45572715 19.06166196 13 19 C12.67 18.34 12.34 17.68 12 17 C17.94 16.67 23.88 16.34 30 16 C32.48809353 12.10846523 32.48809353 12.10846523 31 8 C19.615 7.505 19.615 7.505 8 7 C7.67 8.32 7.34 9.64 7 11 C5.10646634 9.10646634 3.5801368 7.15473199 2 5 C2.33 4.34 2.66 3.68 3 3 C2.01 2.67 1.02 2.34 0 2 C0 1.34 0 0.68 0 0 Z " fill="#FDBB59" transform="translate(37,68)"/>
<path d="M0 0 C2 1.875 2 1.875 3 4 C3 4.66 3 5.32 3 6 C0.69 6.33 -1.62 6.66 -4 7 C-5.29243536 11.1196377 -6.26252625 14.66831683 -6 19 C-5.34 19.33 -4.68 19.66 -4 20 C-5.65 20.66 -7.3 21.32 -9 22 C-9.33 21.34 -9.66 20.68 -10 20 C-10.66 20 -11.32 20 -12 20 C-11.67 17.69 -11.34 15.38 -11 13 C-11.66 13 -12.32 13 -13 13 C-12.66176471 5.08529412 -12.66176471 5.08529412 -10.4375 1.4375 C-6.69064574 -0.77218328 -4.32254018 -0.54889399 0 0 Z " fill="#F9CC85" transform="translate(26,41)"/>
<path d="M0 0 C3.125 0.25 3.125 0.25 4.9375 1.4375 C6.46318682 3.76617989 6.92177533 5.4725962 7.125 8.25 C6.14769781 10.95637529 5.71987555 11.95256222 3.125 13.25 C-0.92642119 13.50860135 -2.41837669 13.55441554 -5.875 11.25 C-6.75 8.9375 -6.75 8.9375 -6.875 6.25 C-3.92045455 0.34090909 -3.92045455 0.34090909 0 0 Z " fill="#FBBE61" transform="translate(41.875,19.75)"/>
<path d="M0 0 C0.58007812 0.20496094 1.16015625 0.40992188 1.7578125 0.62109375 C6.1621984 2.14009813 10.35677777 3.4047151 15 4 C15.33 3.34 15.66 2.68 16 2 C15.67 3.32 15.34 4.64 15 6 C13.700625 5.773125 12.40125 5.54625 11.0625 5.3125 C8.54082199 5.15016009 8.54082199 5.15016009 6 6 C3.24166508 8.66894443 1.08021562 11.47525437 -1.15234375 14.59375 C-2.06693359 15.78484375 -2.06693359 15.78484375 -3 17 C-3.66 17 -4.32 17 -5 17 C-5.33 16.34 -5.66 15.68 -6 15 C-6.66 15.66 -7.32 16.32 -8 17 C-8 16.34 -8 15.68 -8 15 C-8.66 14.67 -9.32 14.34 -10 14 C-9.34 14 -8.68 14 -8 14 C-7.7525 13.4225 -7.505 12.845 -7.25 12.25 C-6 10 -6 10 -4 8.125 C-1.61009915 5.58573035 -0.90842265 3.33088304 0 0 Z " fill="#F8CC87" transform="translate(50,54)"/>
<path d="M0 0 C0.85609863 0.15847412 1.71219727 0.31694824 2.59423828 0.48022461 C5.92449977 0.98847742 9.12698945 1.20423298 12.4921875 1.31640625 C13.69101562 1.35830078 14.88984375 1.40019531 16.125 1.44335938 C17.98125 1.50233398 17.98125 1.50233398 19.875 1.5625 C21.13570312 1.60568359 22.39640625 1.64886719 23.6953125 1.69335938 C26.79677423 1.79909102 29.89831145 1.90118571 33 2 C32.67 2.99 32.34 3.98 32 5 C21.44 5 10.88 5 0 5 C-0.33 4.01 -0.66 3.02 -1 2 C-0.67 1.34 -0.34 0.68 0 0 Z " fill="#FBBC5B" transform="translate(12,82)"/>
<path d="M0 0 C4.61614351 1.81348495 6.93714895 5.03372555 9.25 9.3125 C10.27302173 12.97832787 10.12885445 16.19879378 10 20 C9.67 20 9.34 20 9 20 C8.34 17.03 7.68 14.06 7 11 C5.35 10.67 3.7 10.34 2 10 C2.03480469 10.96421875 2.06960937 11.9284375 2.10546875 12.921875 C2.13253906 14.18515625 2.15960938 15.4484375 2.1875 16.75 C2.22230469 18.00296875 2.25710937 19.2559375 2.29296875 20.546875 C1.98802939 24.14109357 1.45605371 25.44725126 -1 28 C-2.32 27.34 -3.64 26.68 -5 26 C-4.175 25.34 -3.35 24.68 -2.5 24 C0.15752523 20.81096973 0.68440681 19.13491585 0.44140625 15.00390625 C-0.28672846 11.69830354 -1.8993567 9.62580412 -4 7 C-2.35 7 -0.7 7 1 7 C1.66 5.68 2.32 4.36 3 3 C2.34 3 1.68 3 1 3 C0.67 2.01 0.34 1.02 0 0 Z " fill="#F9CB82" transform="translate(51,10)"/>
<path d="M0 0 C3.44100303 0.10010191 6.18465523 0.43009408 9.1875 2.25 C10 4.375 10 4.375 10.1875 6.25 C10.8475 6.25 11.5075 6.25 12.1875 6.25 C11.8575 7.57 11.5275 8.89 11.1875 10.25 C7.91564447 11.32310858 5.75802408 11.14263102 2.4375 10.3125 C1.23867188 10.02052734 1.23867188 10.02052734 0.015625 9.72265625 C-0.58765625 9.56667969 -1.1909375 9.41070312 -1.8125 9.25 C-1.8125 8.92 -1.8125 8.59 -1.8125 8.25 C-0.1625 7.92 1.4875 7.59 3.1875 7.25 C2.5275 5.6 1.8675 3.95 1.1875 2.25 C-1.1225 2.25 -3.4325 2.25 -5.8125 2.25 C-3.8125 0.25 -3.8125 0.25 0 0 Z " fill="#FACB85" transform="translate(41.8125,6.75)"/>
<path d="M0 0 C3.875 1.75 3.875 1.75 5 4 C5.33 3.01 5.66 2.02 6 1 C13.59 1 21.18 1 29 1 C29 1.33 29 1.66 29 2 C18.605 2.495 18.605 2.495 8 3 C8.99 4.32 9.98 5.64 11 7 C10.67 7.66 10.34 8.32 10 9 C9.01 8.34 8.02 7.68 7 7 C7.33 8.32 7.66 9.64 8 11 C7.01 11.495 7.01 11.495 6 12 C6 11.34 6 10.68 6 10 C-2.91 10 -11.82 10 -21 10 C-21 9.67 -21 9.34 -21 9 C-8.625 8.505 -8.625 8.505 4 8 C2.68 6.02 1.36 4.04 0 2 C0 1.34 0 0.68 0 0 Z " fill="#F7DAB0" transform="translate(39,74)"/>
<path d="M0 0 C3.75 0.375 3.75 0.375 6.625 2.1875 C9.65053105 6.72579657 9.64685383 11.02077587 9.75 16.375 C9.09 16.045 8.43 15.715 7.75 15.375 C7.1171875 12.87109375 7.1171875 12.87109375 6.625 9.8125 C6.45742187 8.80058594 6.28984375 7.78867187 6.1171875 6.74609375 C5.99601562 5.96363281 5.87484375 5.18117188 5.75 4.375 C4.76 4.87 4.76 4.87 3.75 5.375 C4.08 6.035 4.41 6.695 4.75 7.375 C5.08 8.035 5.41 8.695 5.75 9.375 C5.09 9.375 4.43 9.375 3.75 9.375 C3.75 11.025 3.75 12.675 3.75 14.375 C3.42 14.375 3.09 14.375 2.75 14.375 C2.09 12.065 1.43 9.755 0.75 7.375 C-1.56 7.045 -3.87 6.715 -6.25 6.375 C-3.9744582 0.45859133 -3.9744582 0.45859133 0 0 Z " fill="#F8CA89" transform="translate(61.25,40.625)"/>
<path d="M0 0 C1.125 1.75 1.125 1.75 2 4 C1.24307556 6.03787348 0.53745581 7.46254419 -1 9 C-3.85877909 9.23701239 -6.69883297 9.42219182 -9.5625 9.5625 C-10.36880859 9.60568359 -11.17511719 9.64886719 -12.00585938 9.69335938 C-14.00368805 9.79975262 -16.0018207 9.90040888 -18 10 C-18 10.33 -18 10.66 -18 11 C-20.875 11.125 -20.875 11.125 -24 11 C-24.66 10.34 -25.32 9.68 -26 9 C-24.68 8.67 -23.36 8.34 -22 8 C-22 7.01 -22 6.02 -22 5 C-21.01 5.33 -20.02 5.66 -19 6 C-17.66474283 6.07973476 -16.32587917 6.10771338 -14.98828125 6.09765625 C-14.23095703 6.09443359 -13.47363281 6.09121094 -12.69335938 6.08789062 C-11.90767578 6.07951172 -11.12199219 6.07113281 -10.3125 6.0625 C-9.11657227 6.05573242 -9.11657227 6.05573242 -7.89648438 6.04882812 C-5.93095743 6.0370585 -3.96546915 6.01912348 -2 6 C-1.34 4.02 -0.68 2.04 0 0 Z " fill="#F8C880" transform="translate(68,76)"/>
<path d="M0 0 C0.99 0.66 1.98 1.32 3 2 C2.60196439 4.88575819 2.20990931 5.82189513 -0.0625 7.75 C-0.701875 8.1625 -1.34125 8.575 -2 9 C-0.35 9.33 1.3 9.66 3 10 C3 10.33 3 10.66 3 11 C-0.63 11 -4.26 11 -8 11 C-7.67 10.34 -7.34 9.68 -7 9 C-7.66 8.34 -8.32 7.68 -9 7 C-6.03 4.69 -3.06 2.38 0 0 Z " fill="#FAD9A9" transform="translate(31,52)"/>
<path d="M0 0 C3.125 0.25 3.125 0.25 4.9375 1.4375 C6.46318682 3.76617989 6.92177533 5.4725962 7.125 8.25 C6.1875 10.5625 6.1875 10.5625 5.125 12.25 C4.465 12.25 3.805 12.25 3.125 12.25 C3.125 8.95 3.125 5.65 3.125 2.25 C0.485 2.91 -2.155 3.57 -4.875 4.25 C-4.875 5.57 -4.875 6.89 -4.875 8.25 C-4.215 8.58 -3.555 8.91 -2.875 9.25 C-2.875 10.24 -2.875 11.23 -2.875 12.25 C-3.865 11.92 -4.855 11.59 -5.875 11.25 C-6.91934887 7.92707176 -7.0912055 6.68241099 -5.5 3.5 C-3.17139175 0.2757732 -3.17139175 0.2757732 0 0 Z " fill="#FBCB87" transform="translate(41.875,19.75)"/>
<path d="M0 0 C2.64 0 5.28 0 8 0 C8.99 1.98 9.98 3.96 11 6 C9.58566794 6.2236337 8.16832382 6.42826476 6.75 6.625 C5.96109375 6.74101562 5.1721875 6.85703125 4.359375 6.9765625 C1.67847541 7.00319395 0.27305911 6.36592084 -2 5 C-2 4.01 -2 3.02 -2 2 C-1.34 2 -0.68 2 0 2 C0 1.34 0 0.68 0 0 Z " fill="#FCBB59" transform="translate(35,9)"/>
<path d="M0 0 C2 1.875 2 1.875 3 4 C3 4.66 3 5.32 3 6 C0.69 6 -1.62 6 -4 6 C-3.67 5.01 -3.34 4.02 -3 3 C-5.97 2.505 -5.97 2.505 -9 2 C-9.66 5.63 -10.32 9.26 -11 13 C-11.66 13 -12.32 13 -13 13 C-12.66176471 5.08529412 -12.66176471 5.08529412 -10.4375 1.4375 C-6.69064574 -0.77218328 -4.32254018 -0.54889399 0 0 Z " fill="#F9D7A6" transform="translate(26,41)"/>
<path d="M0 0 C0.33 0 0.66 0 1 0 C1.24900646 1.93505023 1.47356242 3.87325934 1.6875 5.8125 C1.81511719 6.89144531 1.94273438 7.97039062 2.07421875 9.08203125 C2 12 2 12 0.78125 13.875 C-2.37498429 15.86841113 -5.35054693 15.1794813 -9 15 C-9 14.67 -9 14.34 -9 14 C-7.35 14 -5.7 14 -4 14 C-4.33 11.36 -4.66 8.72 -5 6 C-4.34 7.32 -3.68 8.64 -3 10 C-2.34 10 -1.68 10 -1 10 C-0.67 6.7 -0.34 3.4 0 0 Z " fill="#F8CC88" transform="translate(71,57)"/>
<path d="M0 0 C2.875 -0.125 2.875 -0.125 6 0 C6.66 0.66 7.32 1.32 8 2 C7.01 2 6.02 2 5 2 C5 2.66 5 3.32 5 4 C3.68 4 2.36 4 1 4 C1.04125 5.2375 1.0825 6.475 1.125 7.75 C1.2361216 11.08364791 0.65876079 13.1004339 -1 16 C-2.0006709 10.03654233 -2.0662997 5.71271093 0 0 Z " fill="#FDBB59" transform="translate(17,43)"/>
<path d="M0 0 C0.66 0.33 1.32 0.66 2 1 C3.2194696 6.03693964 3.16321305 10.9594101 2 16 C1.34 15.67 0.68 15.34 0 15 C-0.44921875 12.96875 -0.44921875 12.96875 -0.6875 10.5 C-0.77386719 9.6853125 -0.86023438 8.870625 -0.94921875 8.03125 C-0.96597656 7.3609375 -0.98273438 6.690625 -1 6 C-0.67 5.67 -0.34 5.34 0 5 C-0.66 4.67 -1.32 4.34 -2 4 C-1.34 2.68 -0.68 1.36 0 0 Z " fill="#FDBC58" transform="translate(66,44)"/>
<path d="M0 0 C0.66 0 1.32 0 2 0 C2 0.66 2 1.32 2 2 C2.99 1.67 3.98 1.34 5 1 C5 1.99 5 2.98 5 4 C5.33 4.99 5.66 5.98 6 7 C8.01508358 7.73323796 8.01508358 7.73323796 10 8 C10.33 7.01 10.66 6.02 11 5 C11.99 5.66 12.98 6.32 14 7 C12 10 12 10 9.25 10.75 C5.27988268 9.83381908 4.83736397 8.86007568 2.625 5.5625 C0 1.26153846 0 1.26153846 0 0 Z " fill="#F9D298" transform="translate(33,51)"/>
<path d="M0 0 C0 0.66 0 1.32 0 2 C-0.66 2.66 -1.32 3.32 -2 4 C-2.7115625 4.804375 -2.7115625 4.804375 -3.4375 5.625 C-5 7 -5 7 -8 7 C-8.12375 7.804375 -8.2475 8.60875 -8.375 9.4375 C-8.58125 10.283125 -8.7875 11.12875 -9 12 C-9.99 12.495 -9.99 12.495 -11 13 C-10.68033924 7.72559742 -7.60963971 4.56176651 -4 1 C-2 0 -2 0 0 0 Z " fill="#F7CF93" transform="translate(35,9)"/>
<path d="M0 0 C1.9375 0.8125 1.9375 0.8125 4 2 C4.33 2.99 4.66 3.98 5 5 C4.01 5 3.02 5 2 5 C2 5.66 2 6.32 2 7 C3.32 7.33 4.64 7.66 6 8 C5.01 8.99 4.02 9.98 3 11 C2.401875 10.21625 1.80375 9.4325 1.1875 8.625 C-0.91085249 5.85425677 -0.91085249 5.85425677 -4 4 C-2.35 4 -0.7 4 1 4 C0.67 2.68 0.34 1.36 0 0 Z " fill="#F9D399" transform="translate(35,63)"/>
<path d="M0 0 C0.33 0 0.66 0 1 0 C2.05609621 5.14846902 3.44433951 12.11132099 1 17 C0.01 17 -0.98 17 -2 17 C-1.505 15.515 -1.505 15.515 -1 14 C-0.77439324 11.60745424 -0.59151405 9.21071877 -0.4375 6.8125 C-0.35371094 5.54019531 -0.26992187 4.26789063 -0.18359375 2.95703125 C-0.12300781 1.98121094 -0.06242187 1.00539063 0 0 Z " fill="#F3CE94" transform="translate(73,70)"/>
<path d="M0 0 C0.33 0 0.66 0 1 0 C1.08142927 1.7492214 1.13938541 3.49954542 1.1875 5.25 C1.22230469 6.22453125 1.25710937 7.1990625 1.29296875 8.203125 C0.96075202 11.37468742 0.11327721 12.67040307 -2 15 C-3.32 14.34 -4.64 13.68 -6 13 C-5.195625 12.34 -4.39125 11.68 -3.5625 11 C-0.24851076 7.12020772 -0.25422975 4.99985175 0 0 Z " fill="#F9D49F" transform="translate(52,23)"/>
<path d="M0 0 C1.4540625 0.0309375 1.4540625 0.0309375 2.9375 0.0625 C2.9375 0.3925 2.9375 0.7225 2.9375 1.0625 C1.7309375 1.248125 1.7309375 1.248125 0.5 1.4375 C-0.345625 1.64375 -1.19125 1.85 -2.0625 2.0625 C-2.3925 2.7225 -2.7225 3.3825 -3.0625 4.0625 C-3.7225 4.0625 -4.3825 4.0625 -5.0625 4.0625 C-5.0625 5.3825 -5.0625 6.7025 -5.0625 8.0625 C-4.4025 8.3925 -3.7425 8.7225 -3.0625 9.0625 C-3.0625 10.0525 -3.0625 11.0425 -3.0625 12.0625 C-4.0525 11.7325 -5.0425 11.4025 -6.0625 11.0625 C-7.10684887 7.73957176 -7.2787055 6.49491099 -5.6875 3.3125 C-3.34443326 0.06825374 -3.34443326 0.06825374 0 0 Z " fill="#F8D7A8" transform="translate(42.0625,19.9375)"/>
<path d="M0 0 C-0.63421875 0.20367187 -1.2684375 0.40734375 -1.921875 0.6171875 C-4.29064565 1.87221871 -4.29064565 1.87221871 -4.828125 4.8203125 C-4.96734375 5.91085938 -5.1065625 7.00140625 -5.25 8.125 C-5.39953125 9.22070312 -5.5490625 10.31640625 -5.703125 11.4453125 C-5.80109375 12.28835937 -5.8990625 13.13140625 -6 14 C-6.33 14 -6.66 14 -7 14 C-7.24915939 12.23186888 -7.47366632 10.46025018 -7.6875 8.6875 C-7.81511719 7.70136719 -7.94273438 6.71523437 -8.07421875 5.69921875 C-8 3 -8 3 -6.6875 1.15625 C-4.39931096 -0.41158323 -2.71029246 -0.21975344 0 0 Z " fill="#FBDDB4" transform="translate(22,67)"/>
<path d="M0 0 C1.65 0.33 3.3 0.66 5 1 C4.67 2.32 4.34 3.64 4 5 C2.125 5.625 2.125 5.625 0 6 C-0.66 5.34 -1.32 4.68 -2 4 C-1.34 2.68 -0.68 1.36 0 0 Z " fill="#FDBA55" transform="translate(49,12)"/>
<path d="M0 0 C2.76222843 2.38556092 3.98658817 4.49203597 5 8 C5.15512216 10.69212002 5.09156216 13.29891626 5 16 C4.67 16 4.34 16 4 16 C3.81824219 15.14728516 3.81824219 15.14728516 3.6328125 14.27734375 C2.58677946 9.45754536 1.40795516 4.7267066 0 0 Z " fill="#F8DCB5" transform="translate(56,14)"/>
<path d="M0 0 C2.97 0 5.94 0 9 0 C9.33 0.66 9.66 1.32 10 2 C7.00468461 2.99843846 5.82744268 3.00732761 2.8125 2.5625 C1.554375 2.376875 0.29625 2.19125 -1 2 C-0.67 1.34 -0.34 0.68 0 0 Z " fill="#FCBB58" transform="translate(56,59)"/>
<path d="M0 0 C3.375 -0.125 3.375 -0.125 7 0 C7.66 0.66 8.32 1.32 9 2 C5.37 2.66 1.74 3.32 -2 4 C-1.34 2.68 -0.68 1.36 0 0 Z " fill="#FADBB1" transform="translate(58,41)"/>
<path d="M0 0 C2.31 0 4.62 0 7 0 C7 0.99 7 1.98 7 3 C4.36 2.67 1.72 2.34 -1 2 C-0.67 1.34 -0.34 0.68 0 0 Z " fill="#FDBC57" transform="translate(29,64)"/>
<path d="M0 0 C0.66 0 1.32 0 2 0 C0.84414715 3.91211733 -0.35534962 6.8745041 -3 10 C-2.67 7.69 -2.34 5.38 -2 3 C-1.34 3 -0.68 3 0 3 C0 2.01 0 1.02 0 0 Z " fill="#F7CF96" transform="translate(54,40)"/>
<path d="M0 0 C0 0.99 0 1.98 0 3 C-4.22222222 6 -4.22222222 6 -7 6 C-5.81636731 2.44910192 -3.99368042 0 0 0 Z " fill="#FCBA5C" transform="translate(32,54)"/>
</svg>
